<?xml version="1.0" encoding="UTF-8"?>
<svg version="1.1" xmlns="http://www.w3.org/2000/svg" width="450" height="450">
<path d="M0 0 C1.26966866 -0.01475876 1.26966866 -0.01475876 2.56498718 -0.02981567 C44.7683727 -0.4188625 83.47303655 6.95464903 120.8828125 27.23828125 C121.56408203 27.60646973 122.24535156 27.9746582 122.94726562 28.35400391 C138.18191129 36.69493711 151.75409764 46.96763571 164.37109375 58.87890625 C166.42886529 60.81186738 168.51517862 62.63547263 170.6953125 64.42578125 C174.5201274 67.67274642 177.65458527 71.41106655 180.8828125 75.23828125 C182.1203125 76.64400391 182.1203125 76.64400391 183.3828125 78.078125 C215.45538373 114.71346679 236.81787076 164.49577807 237.0859375 213.56640625 C237.09299713 214.42925735 237.10005676 215.29210846 237.10733032 216.18110657 C237.33140025 251.59669207 237.33140025 251.59669207 233.8828125 267.23828125 C233.57682129 268.70225342 233.57682129 268.70225342 233.26464844 270.19580078 C222.19662916 322.51514957 193.21287588 372.00351712 149.8828125 404.23828125 C149.29661133 404.67914063 148.71041016 405.12 148.10644531 405.57421875 C112.58830353 432.10973104 68.55659416 450.04471932 23.765625 450.4765625 C22.91917923 450.48640167 22.07273346 450.49624084 21.20063782 450.50637817 C-32.32207274 450.99977084 -85.09471412 437.95810804 -127.1171875 403.23828125 C-127.65875488 402.79822754 -128.20032227 402.35817383 -128.75830078 401.90478516 C-142.75822582 390.49184714 -156.31975777 377.75829054 -167.1171875 363.23828125 C-167.56868164 362.63612793 -168.02017578 362.03397461 -168.48535156 361.41357422 C-176.34613785 350.85921369 -183.08877476 339.93065611 -189.1171875 328.23828125 C-189.69895752 327.12163086 -189.69895752 327.12163086 -190.29248047 325.98242188 C-206.35122638 294.82104825 -213.57385453 260.81732809 -213.4921875 225.92578125 C-213.49131134 225.00652863 -213.49043518 224.087276 -213.48953247 223.14016724 C-213.37102227 185.27882388 -204.18311798 149.55787628 -186.1171875 116.23828125 C-185.74899902 115.55701172 -185.38081055 114.87574219 -185.00146484 114.17382812 C-176.66053164 98.93918246 -166.38783304 85.36699611 -154.4765625 72.75 C-152.54360137 70.69222846 -150.71999612 68.60591513 -148.9296875 66.42578125 C-145.68272233 62.60096635 -141.9444022 59.46650848 -138.1171875 56.23828125 C-137.18003906 55.41328125 -136.24289063 54.58828125 -135.27734375 53.73828125 C-98.64481223 21.66817028 -49.03570677 0.47276796 0 0 Z " fill="#333333" transform="translate(213.1171875,-0.23828125)"/>
<path d="M0 0 C25.11604192 10.55762824 52.19913322 9.3929845 77.18041992 -0.46118164 C87.62004216 -4.57666272 87.62004216 -4.57666272 91.63232422 -3.21191406 C93.99711442 -2.14231583 96.25265694 -0.9561798 98.5234375 0.30078125 C99.35915283 0.75565918 100.19486816 1.21053711 101.0559082 1.67919922 C121.11074535 12.88737749 138.34682748 28.67043468 150.6484375 48.11328125 C151.34195313 49.18449219 152.03546875 50.25570312 152.75 51.359375 C164.42884525 70.50095727 171.14116471 92.72711236 171.6484375 115.11328125 C171.66890137 115.88526855 171.68936523 116.65725586 171.71044922 117.45263672 C171.84350367 123.01343301 171.8169885 128.55373189 171.6484375 134.11328125 C171.6278125 135.15226563 171.6071875 136.19125 171.5859375 137.26171875 C171.21060258 141.07371407 170.45651276 143.25898135 167.8046875 146.0625 C164.88928688 148.33669701 161.82182488 150.23133291 158.6484375 152.11328125 C157.92688477 152.55929687 157.20533203 153.0053125 156.46191406 153.46484375 C124.76198354 173.02075965 87.05298425 185.9898042 49.53125 186.3515625 C48.68480423 186.36140167 47.83835846 186.37124084 46.96626282 186.38137817 C0.77350872 186.80720052 -40.45693533 177.23410537 -80.5390625 153.86328125 C-81.24635498 153.45094238 -81.95364746 153.03860352 -82.68237305 152.61376953 C-92.67248378 146.67487578 -92.67248378 146.67487578 -94.27734375 142.984375 C-95.75105499 133.7104144 -95.58498896 124.47209961 -95.3515625 115.11328125 C-95.33351563 113.84097656 -95.31546875 112.56867188 -95.296875 111.2578125 C-94.73593423 96.12890997 -90.50292992 80.90315987 -84.3515625 67.11328125 C-84.08537109 66.51128906 -83.81917969 65.90929687 -83.54492188 65.2890625 C-70.49098424 36.23447445 -48.23726449 14.13826397 -20.3515625 -0.88671875 C-19.67351562 -1.25925781 -18.99546875 -1.63179688 -18.296875 -2.015625 C-11.54352948 -5.36228289 -6.30094104 -2.95692626 0 0 Z " fill="#000000" transform="translate(187.3515625,263.88671875)"/>
<path d="M0 0 C1.37128052 0.00845947 1.37128052 0.00845947 2.77026367 0.01708984 C24.35268664 0.39934758 45.3322799 8.38757535 61.8125 22.3125 C62.61429688 22.96863281 63.41609375 23.62476562 64.2421875 24.30078125 C77.80955052 35.86051267 88.4828555 51.87846483 92.8125 69.3125 C93.08835937 70.35921875 93.36421875 71.4059375 93.6484375 72.484375 C99.56604854 97.78351945 95.07850846 123.90715674 81.50390625 146.01318359 C77.06264926 152.82546282 71.57643879 158.6121633 65.8125 164.3125 C64.79736328 165.34310547 64.79736328 165.34310547 63.76171875 166.39453125 C45.6242885 183.59984517 19.5251117 189.81570156 -4.63671875 189.5234375 C-27.83825987 188.88627024 -50.03037402 178.69465559 -66.1875 162.3125 C-67.0640625 161.44625 -67.940625 160.58 -68.84375 159.6875 C-78.96768808 149.18860125 -85.56966509 137.09182266 -90.1875 123.3125 C-90.53683594 122.31605469 -90.88617188 121.31960937 -91.24609375 120.29296875 C-98.30036937 97.95930776 -94.82095327 71.7451305 -84.19677734 51.1484375 C-72.22930457 29.37886921 -52.35714031 11.37581458 -28.3125 4.375 C-25.6181817 3.61578414 -22.91550816 2.93948035 -20.1875 2.3125 C-19.40431396 2.12776123 -18.62112793 1.94302246 -17.81420898 1.75268555 C-11.83203838 0.43650277 -6.11843328 -0.04015096 0 0 Z " fill="#000000" transform="translate(225.1875,77.6875)"/>
<path d="M0 0 C22.23599638 16.93487217 35.64646338 38.28864222 41.58984375 65.72265625 C44.95591509 92.61916914 38.6924752 119.90937162 22.25 141.625 C15.64844532 150.06737281 8.1707006 158.34148261 -1 164 C-1.66 164 -2.32 164 -3 164 C-0.34015439 167.15916681 3.0600775 168.6465998 6.6875 170.4375 C12.67169481 173.51132054 18.12284086 177.02154874 23.5 181.0625 C24.46812622 181.78554321 24.46812622 181.78554321 25.45581055 182.52319336 C30.00443477 186.01539328 34.01483235 189.8850646 38 194 C39.175625 195.1446875 39.175625 195.1446875 40.375 196.3125 C41.24125 197.199375 42.1075 198.08625 43 199 C43.65742188 199.67289063 44.31484375 200.34578125 44.9921875 201.0390625 C69.78030234 227.37107376 79.78880281 262.83062833 80.5625 298.1875 C80.61365967 299.4655249 80.66481934 300.7435498 80.7175293 302.06030273 C80.8061911 311.00562375 80.8061911 311.00562375 78.40185547 313.97119141 C76.46484375 315.36328125 76.46484375 315.36328125 73 317 C73.165 315.741875 73.33 314.48375 73.5 313.1875 C74.33060104 304.81029523 74.14998504 296.4062203 74 288 C73.98324219 286.72640625 73.96648437 285.4528125 73.94921875 284.140625 C72.62368129 249.44941607 54.68799478 217.25905682 30.0546875 193.6484375 C21.13720404 185.42458426 11.05375728 178.78276521 0.3125 173.1875 C-0.33452881 172.84340088 -0.98155762 172.49930176 -1.64819336 172.14477539 C-5.91124295 170.05318352 -8.46252248 169.66679412 -13 171 C-15.98712627 172.05507748 -18.92831339 173.21264436 -21.875 174.375 C-48.63275002 184.45759325 -74.80038666 182.92411288 -101 172 C-101.66644531 171.58878906 -102.33289063 171.17757812 -103.01953125 170.75390625 C-107.20463873 169.16075883 -111.25748744 170.70852148 -115.25390625 172.27734375 C-128.25437284 178.8006003 -139.47849024 186.93742524 -150 197 C-151.30517578 198.175625 -151.30517578 198.175625 -152.63671875 199.375 C-175.09603544 220.39256312 -189.54255574 253.43749353 -190.9140625 284.03515625 C-191.29570652 300.55079255 -191.29570652 300.55079255 -190 317 C-192 316 -194 315 -196 314 C-203.01028727 283.51186387 -192.7195191 247.26161754 -177.0625 221.125 C-169.10750413 208.75576133 -160.30124999 197.43111431 -149 188 C-147.85144531 186.98486328 -147.85144531 186.98486328 -146.6796875 185.94921875 C-123.50599467 166 -123.50599467 166 -113 166 C-113 165.34 -113 164.68 -113 164 C-113.83015625 163.81953125 -114.6603125 163.6390625 -115.515625 163.453125 C-120.27746584 161.46724519 -123.18646318 158.41244106 -126.75 154.75 C-127.80562134 153.67407593 -127.80562134 153.67407593 -128.88256836 152.57641602 C-149.8103971 130.8230887 -158.64819466 104.90362071 -158.28125 74.8828125 C-158.0325478 67.13573904 -156.41540927 60.35709907 -154 53 C-153.63777344 51.81277344 -153.27554688 50.62554687 -152.90234375 49.40234375 C-148.48853246 35.89159257 -141.49305338 24.57219266 -132 14 C-131.08154297 12.95779297 -131.08154297 12.95779297 -130.14453125 11.89453125 C-117.27205843 -1.85623396 -99.2004531 -11.59173678 -81 -16 C-80.27546631 -16.17587646 -79.55093262 -16.35175293 -78.80444336 -16.53295898 C-52.17502303 -22.4844214 -22.00559017 -16.0398803 0 0 Z M-124 13 C-124.63421875 13.55042969 -125.2684375 14.10085937 -125.921875 14.66796875 C-137.15451507 25.10195781 -146.21607403 41.197472 -150 56 C-150.27714844 57.04929687 -150.55429688 58.09859375 -150.83984375 59.1796875 C-156.74204129 84.47481983 -152.27676567 110.6077255 -138.68701172 132.70507812 C-134.24171138 139.51663463 -128.76254448 145.29801107 -123 151 C-122.18789062 151.83402344 -121.37578125 152.66804687 -120.5390625 153.52734375 C-103.34172521 170.23904195 -78.19683445 176.53416919 -54.8449707 176.28100586 C-32.72410363 175.76013046 -10.45968212 166.89615445 6 152 C7.13501953 150.98679688 7.13501953 150.98679688 8.29296875 149.953125 C26.45940423 132.81851804 36.54810203 108.67851237 37.33666992 83.92285156 C37.74708294 56.64214957 27.80146493 33.33741858 8.87109375 13.78125 C-10.22862742 -4.72079282 -34.76278083 -13.41439282 -61.07739258 -13.30053711 C-85.37283505 -12.81692703 -105.95077265 -2.92407639 -124 13 Z " fill="#4FEFD4" transform="translate(284,91)"/>
</svg>
